<?xml version="1.0" encoding="utf-8"?>
<!-- Generator: Adobe Illustrator 19.0.0, SVG Export Plug-In . SVG Version: 6.00 Build 0)  -->
<svg version="1.1" id="Layer_1" xmlns="http://www.w3.org/2000/svg" xmlns:xlink="http://www.w3.org/1999/xlink" x="0px" y="0px"
	 viewBox="0 0 393.2 485.8" style="enable-background:new 0 0 393.2 485.8;" xml:space="preserve">
<g>
	<path id="XMLID_2_" d="M34,6.3c16.4,7,32.6,14.4,47.3,24.9C93,39.6,98.5,49,98.4,64.5C97.5,154.8,98,245,98,335.2
		c0,15.6,1.2,16.9,17,17.2c8.1,0.2,16.2-0.3,24.3-0.2c8.8,0.1,12.1-4.2,12-12.7c-0.2-22.4,0.2-44.8-0.2-67.2
		c-0.1-8.1,1.9-9.9,9.4-6.3c24.2,11.4,48.5,22.5,72.9,33.5c5,2.3,6.8,5.4,6.8,10.8c-0.1,40.4-0.1,80.9-0.1,121.3
		c0,5.1-0.5,9.5-7.2,9.4c-61.9-0.8-123.8,1.9-185.7-1.5c-26.3-1.4-34.9-10.7-37.4-37.1c-0.7-7.1-1.1-14.3-1.1-21.4
		c-0.1-118.9,0-237.7-0.2-356.6c0-7.3,1.5-13.4,6.9-18.2C21.6,6.3,27.8,6.3,34,6.3z"/>
	<path id="XMLID_1_" d="M383.9,295.4c0,55.7,0,111.4,0,167.2c0,14.3-3.3,17.6-17.5,17.6c-26.2,0-48-11-68.1-26.7
		c-5-3.9-4.1-9.4-4.1-14.6c0-89.7,0-179.3,0-269c0-20.1-0.6-20.8-20.9-21.3c-6.8-0.2-13.7,0-20.5,0.3c-8.1,0.4-12.3,4.2-12.2,13
		c0.2,25.2-0.3,50.4,0.2,75.6c0.2,8.6-2.4,8.8-8.9,5.6c-24.3-11.8-48.8-23.3-73.2-35c-3.4-1.6-6.9-3-6.8-7.8
		c0.7-31.1-1.9-62.2,3.2-93.1c3.4-20.6,15.4-33.4,34.9-39.6c18-5.7,36.7-6.9,55.3-7.3c27.7-0.6,55.4-1.1,82.8,3.6
		c8.6,1.5,17,3.9,25,7.5c22.4,10.1,28.7,29.8,29.9,51.9c2.1,37.6,0.6,75.3,0.9,113C384.1,256.2,383.9,275.8,383.9,295.4z"/>
</g>
</svg>
